HIERARCHY
ROOT Bone-00
{
	OFFSET 0.000000 0.000000 0.000000
	CHANNELS 6 Xposition Yposition Zposition Xrotation Yrotation Zrotation
	JOINT Bone-20
	{
		OFFSET 0.000000 0.000000 2.000000
		CHANNELS 3 Xrotation Yrotation Zrotation
		JOINT Bone-60
		{
			OFFSET 0.000000 0.000000 -0.300000
			CHANNELS 3 Xrotation Yrotation Zrotation
			JOINT Bone-61
			{
				OFFSET 0.300000 0.000000 0.000000
				CHANNELS 3 Xrotation Yrotation Zrotation
				JOINT Bone-62
				{
					OFFSET 0.000000 0.000000 -0.700000
					CHANNELS 3 Xrotation Yrotation Zrotation
					JOINT Bone-63
					{
						OFFSET 0.000000 0.000000 -0.800000
						CHANNELS 3 Xrotation Yrotation Zrotation
						End Site
						{
							OFFSET 0.000000 -0.300000 0.000000
						}
					}
				}
			}
		}
		JOINT Bone-70
		{
			OFFSET 0.000000 0.000000 -0.300000
			CHANNELS 3 Xrotation Yrotation Zrotation
			JOINT Bone-71
			{
				OFFSET -0.300000 0.000000 0.000000
				CHANNELS 3 Xrotation Yrotation Zrotation
				JOINT Bone-72
				{
					OFFSET 0.000000 0.000000 -0.700000
					CHANNELS 3 Xrotation Yrotation Zrotation
					JOINT Bone-73
					{
						OFFSET 0.000000 0.000000 -0.800000
						CHANNELS 3 Xrotation Yrotation Zrotation
						End Site
						{
							OFFSET 0.000000 -0.300000 0.000000
						}
					}
				}
			}
		}
	}
	JOINT Bone-10
	{
		OFFSET 0.000000 0.000000 2.000000
		CHANNELS 3 Xrotation Yrotation Zrotation
		JOINT Bone-30
		{
			OFFSET 0.000000 0.000000 1.000000
			CHANNELS 3 Xrotation Yrotation Zrotation
			End Site
			{
				OFFSET 0.000000 0.000000 1.000000
			}
		}
		JOINT Bone-40
		{
			OFFSET 0.000000 0.000000 1.000000
			CHANNELS 3 Xrotation Yrotation Zrotation
			JOINT Bone-41
			{
				OFFSET 0.500000 0.000000 -0.200000
				CHANNELS 3 Xrotation Yrotation Zrotation
				JOINT Bone-42
				{
					OFFSET 0.500000 0.000000 0.000000
					CHANNELS 3 Xrotation Yrotation Zrotation
					JOINT Bone-43
					{
						OFFSET 0.600000 0.000000 0.000000
						CHANNELS 3 Xrotation Yrotation Zrotation
						End Site
						{
							OFFSET 0.000000 -0.300000 0.000000
						}
					}
				}
			}
		}
		JOINT Bone-50
		{
			OFFSET 0.000000 0.000000 1.000000
			CHANNELS 3 Xrotation Yrotation Zrotation
			JOINT Bone-51
			{
				OFFSET -0.500000 0.000000 -0.204061
				CHANNELS 3 Xrotation Yrotation Zrotation
				JOINT Bone-52
				{
					OFFSET -0.500000 0.000000 0.004061
					CHANNELS 3 Xrotation Yrotation Zrotation
					JOINT Bone-53
					{
						OFFSET -0.600000 0.000000 0.000000
						CHANNELS 3 Xrotation Yrotation Zrotation
						End Site
						{
							OFFSET 0.000000 -0.300000 0.000000
						}
					}
				}
			}
		}
	}
}
MOTION
Frames: 9
Frame Time: 0.050000
0.000000 0.000000 0.000000 -0.000000 0.000000 -0.000000 -0.000000 0.000000 -0.000000 -0.000000 0.000000 0.000000 -0.000000 0.000000 -0.000000 -0.000000 0.000000 -0.000000 -0.000000 0.000000 -0.000000 -0.000000 0.000000 0.000000 -0.000000 0.000000 -0.000000 -0.000000 -0.000000 -0.000000 -0.000000 0.000000 -0.000000 -0.000000 0.000000 -0.000000 -0.000000 0.000000 -0.000000 -0.000000 -0.000003 -0.000001 0.000012 77.319606 0.000068 0.000000 -0.000000 0.000000 0.000000 0.000000 0.000000 -0.000000 0.000000 0.000000 -1.670470 -77.311109 -2.080675 -0.000000 -0.000001 -0.000000 -0.000000 -0.000001 0.000000 
0.000000 0.000000 -0.020800 -0.000000 0.000000 -0.000000 -0.000000 0.000000 -0.000000 -0.000000 0.000000 0.000000 -1.924957 0.000000 0.000000 7.141253 -0.000000 -0.000000 0.000000 0.000000 -0.000000 -0.000000 0.000000 0.000000 -3.574097 0.000000 0.000000 7.141253 0.000000 0.000000 0.000000 0.000000 0.000000 -0.000000 0.000000 -0.000000 -0.000000 0.000000 -0.000000 -0.000000 -0.000003 -0.000001 24.787740 72.027835 -33.640977 8.239234 -0.853869 -11.813334 0.000001 -0.000000 -0.000000 -0.000000 0.000000 0.000000 1.751525 -78.412252 -6.525823 0.000003 0.000000 23.499964 0.000000 0.000001 -4.398155 
0.000000 0.000000 -0.070400 -0.000000 0.000000 -0.000000 -0.000000 0.000000 -0.000000 -0.000000 0.000000 0.000000 -7.141252 0.000000 0.000000 23.851225 -0.000000 0.000000 0.000000 0.000000 0.000000 -0.000000 0.000000 0.000000 -12.056190 0.000000 0.000000 23.851229 0.000000 0.000000 0.000000 0.000000 -0.000000 -0.000000 0.000000 -0.000000 -0.000000 0.000000 -0.000000 -0.000000 -0.000003 -0.000001 36.950815 52.336161 -68.429343 24.868203 -8.420197 -36.924395 -0.000001 0.000001 0.000000 -0.000000 0.000000 0.000000 8.940395 -81.220020 -17.129076 0.000006 0.000004 70.291102 0.000001 0.000002 -15.849300 
0.000000 0.000000 -0.129600 -0.000000 0.000000 -0.000000 -0.000000 0.000000 -0.000000 -0.000000 0.000000 0.000000 -14.768746 0.000000 0.000000 42.492154 -0.000000 -0.000000 0.000000 0.000000 -0.000000 -0.000000 0.000000 0.000000 -22.002170 0.000001 0.000000 42.492154 0.000000 0.000000 0.000000 0.000000 0.000000 -0.000000 0.000000 -0.000000 -0.000000 0.000000 -0.000000 -0.000000 -0.000003 -0.000001 29.841144 29.938621 -89.804420 36.766666 -21.199545 -58.768853 -0.000001 0.000000 0.000002 -0.000000 0.000000 0.000000 14.181740 -84.654471 -30.606105 0.000006 0.000008 104.692101 0.000001 0.000005 -31.369478 
0.000000 0.000000 -0.179200 -0.000000 0.000000 -0.000000 -0.000000 0.000000 -0.000000 -0.000000 0.000000 0.000000 -23.851225 0.000001 0.000000 56.524948 -0.000000 0.000000 0.000000 0.000000 -0.000000 -0.000000 0.000000 0.000000 -30.090952 0.000001 0.000000 56.524948 -0.000000 -0.000000 0.000000 0.000000 0.000000 -0.000000 0.000000 -0.000000 -0.000000 0.000000 -0.000000 -0.000000 -0.000003 -0.000001 19.239808 15.162397 -103.719004 41.669116 -30.781644 -71.760071 -0.000000 -0.000001 0.000001 -0.000000 0.000000 0.000000 8.501992 -87.570975 -49.446922 0.000006 0.000010 121.673850 0.000003 0.000008 -47.652502 
0.000000 0.000000 -0.200000 -0.000000 0.000000 -0.000000 -0.000000 0.000000 -0.000000 -0.000000 0.000000 0.000000 -33.398484 0.000001 0.000000 61.927522 -0.000000 0.000000 0.000000 0.000000 -0.000000 -0.000000 0.000000 0.000000 -33.398488 0.000001 0.000000 61.927515 -0.000000 -0.000000 0.000000 0.000000 0.000000 -0.000000 0.000000 -0.000000 -0.000000 0.000000 -0.000000 -0.000000 -0.000003 -0.000001 10.856403 7.662262 -109.653817 42.835200 -34.211465 -76.233702 0.000002 -0.000003 0.000003 -0.000000 0.000000 0.000000 -43.489942 -89.087414 -105.877392 0.000005 0.000011 126.869903 0.000006 0.000009 -61.927515 
0.000000 -0.104000 -0.200000 -0.000000 0.000000 -0.000000 -0.000000 0.000000 -0.000000 -0.000000 0.000000 0.000000 -42.492171 0.000001 0.000000 61.281236 -0.000000 0.000000 0.000000 0.000000 0.000000 -0.000000 0.000000 0.000000 -24.464839 0.000001 0.000000 56.524955 0.000000 0.000000 0.000000 0.000000 -0.000000 -0.000000 0.000000 -0.000000 -0.000000 0.000000 -0.000000 -0.000000 -0.000003 -0.000001 5.487527 3.776382 -110.952113 41.669119 -30.781644 -71.760071 0.000001 0.000003 -0.000001 -0.000000 0.000000 0.000000 34.364639 -91.385117 -12.590640 0.000005 0.000010 121.673850 0.000007 0.000010 -72.824952 
0.000000 -0.352000 -0.200000 -0.000000 0.000000 -0.000000 -0.000000 0.000000 -0.000000 -0.000000 0.000000 0.000000 -50.384588 0.000001 0.000001 59.439305 -0.000000 0.000000 0.000001 0.000000 -0.000000 -0.000000 0.000000 0.000000 -2.108241 0.000000 0.000000 42.492161 0.000000 0.000000 0.000000 0.000000 -0.000000 -0.000000 0.000000 -0.000000 -0.000000 0.000000 -0.000000 -0.000000 -0.000003 -0.000001 2.297458 1.553231 -111.881757 36.766666 -21.199539 -58.768846 0.000003 0.000001 -0.000000 -0.000000 0.000000 0.000000 -22.415924 -93.529598 -27.076678 0.000007 0.000009 104.692088 0.000009 0.000010 -80.649180 
0.000000 -0.648000 -0.200000 -0.000000 0.000000 -0.000000 -0.000000 0.000000 -0.000000 -0.000000 0.000000 0.000000 -56.524952 0.000002 0.000001 56.524955 -0.000000 0.000000 0.000000 -0.000000 0.000000 -0.000000 0.000000 0.000000 24.639897 -0.000001 0.000000 23.851229 0.000000 0.000000 0.000000 0.000000 -0.000000 -0.000000 0.000000 -0.000000 -0.000000 0.000000 -0.000000 -0.000000 -0.000003 -0.000001 0.678072 0.453976 -112.396220 24.868205 -8.420195 -36.924399 -0.000001 0.000000 0.000001 -0.000000 0.000000 0.000000 -60.532340 -95.443124 -14.151500 0.000007 0.000004 70.291102 0.000009 0.000010 -85.919340 
